<?xml version="1.0" encoding="UTF-8"?>
<!DOCTYPE svg PUBLIC "-//W3C//DTD SVG 1.0//EN" "http://www.w3.org/TR/2001/REC-SVG-20010904/DTD/svg10.dtd">
<!-- Creator: CorelDRAW Home & Student X6 -->
<svg xmlns="http://www.w3.org/2000/svg" xml:space="preserve" width="250mm" height="300mm" version="1.0" shape-rendering="geometricPrecision" text-rendering="geometricPrecision" image-rendering="optimizeQuality" fill-rule="evenodd" clip-rule="evenodd"
viewBox="0 0 25000 30000"
 xmlns:xlink="http://www.w3.org/1999/xlink">
 <g id="Ebene_x0020_1">
  <metadata id="CorelCorpID_0Corel-Layer"/>
  <path fill="none" stroke="red" d="M9099 4729l450 0 0 350 -450 0 0 -350zm-1050 0l300 0 0 350 -300 0 0 -350zm1050 -940l450 0 0 350 -450 0 0 -350zm-450 495c83,0 150,67 150,150 0,83 -67,150 -150,150 -83,0 -150,-67 -150,-150 0,-83 67,-150 150,-150zm0 -750l900 0c165,0 300,135 300,300l0 1200c0,65 -21,126 -57,176l0 0 -440 597c-55,74 -108,157 -224,74l-982 -701 1 0c-239,-162 -398,-436 -398,-746l0 0c0,-104 18,-202 51,-295l0 0 399 0 0 -350 -176 0c162,-158 383,-255 626,-255z"/>
  <path fill="none" stroke="red" d="M7365 15785c-28,0 -50,-22 -50,-50 0,-28 22,-50 50,-50 28,0 50,22 50,50 0,28 -22,50 -50,50zm0 -2794c-28,0 -50,-22 -50,-50 0,-28 22,-50 50,-50 28,0 50,22 50,50 0,28 -22,50 -50,50zm5207 -508c-28,0 -50,-22 -50,-50 0,-28 22,-50 50,-50 28,0 50,22 50,50 0,28 -22,50 -50,50zm-127 4826c-28,0 -50,-22 -50,-50 0,-28 22,-50 50,-50 28,0 50,22 50,50 0,28 -22,50 -50,50zm1405 -4557l0 592 -135 0c-221,0 -401,181 -401,401l0 1001c0,221 181,401 401,401l135 0 0 1863 -1404 0c-138,0 -250,113 -250,250l0 135 -4797 0 0 -463c149,-18 265,-145 265,-298l0 -889c0,-153 -116,-280 -265,-298l-30 0c-112,0 -203,-91 -203,-203l0 -463c0,-112 91,-203 203,-203l30 0 0 -1235c149,-18 265,-145 265,-298l0 -105c0,-153 -116,-280 -265,-298l0 -347 4050 0 0 137c0,138 112,250 250,250l872 0c138,0 250,-113 250,-250l0 -137 572 0c0,252 204,456 456,456zm850 -12145l0 17679c0,171 -140,311 -311,311l-8079 0c-171,0 -311,-140 -311,-311l0 -17679c0,-171 140,-311 311,-311l8079 0c171,0 311,140 311,311zm-3600 5689c0,1657 -940,3000 -2100,3000 -1160,0 -2100,-1343 -2100,-3000 0,-1657 940,-3000 2100,-3000 1160,0 2100,1343 2100,3000zm2250 5385l0 330 -600 0 0 -330 600 0zm-1800 0l0 330 -600 0 0 -330 600 0zm-1800 0l0 330 -600 0 0 -330 600 0zm-1800 0l0 330 -600 0 0 -330 600 0zm6135 6615l0 -600 330 0 0 600 -330 0zm0 -6000l0 -600 330 0 0 600 -330 0zm0 -1800l0 -600 330 0 0 600 -330 0zm0 -1800l0 -600 330 0 0 600 -330 0zm0 -1800l0 -600 330 0 0 600 -330 0zm0 -1800l0 -600 330 0 0 600 -330 0zm0 -1800l0 -600 330 0 0 600 -330 0zm0 -1800l0 -600 330 0 0 600 -330 0zm-7800 16800l0 -600 330 0 0 600 -330 0zm0 -1950l0 -600 330 0 0 600 -330 0zm0 -2100l0 -600 330 0 0 600 -330 0zm0 -1950l0 -600 330 0 0 600 -330 0zm0 -1800l0 -600 330 0 0 600 -330 0zm0 -1800l0 -600 330 0 0 600 -330 0zm0 -1800l0 -600 330 0 0 600 -330 0zm0 -1800l0 -600 330 0 0 600 -330 0zm0 -1800l0 -600 330 0 0 600 -330 0zm0 -1800l0 -600 330 0 0 600 -330 0zm7065 -915l0 330 -600 0 0 -330 600 0zm-1800 0l0 330 -600 0 0 -330 600 0zm-1800 0l0 330 -600 0 0 -330 600 0zm-1800 0l0 330 -600 0 0 -330 600 0zm5650 11665l100 100 -100 100 -100 -100 100 -100zm-1700 5300l100 100 -100 100 -100 -100 100 -100zm-4900 0l100 100 -100 100 -100 -100 100 -100zm0 -3000l100 100 -100 100 -100 -100 100 -100zm0 -2300l100 100 -100 100 -100 -100 100 -100zm6500 -5950c0,249 -201,450 -450,450 -249,0 -450,-201 -450,-450 0,-249 201,-450 450,-450 249,0 450,201 450,450zm-150 11677l0 330 -600 0 0 -330 600 0zm-1800 0l0 330 -600 0 0 -330 600 0zm-1800 0l0 330 -600 0 0 -330 600 0zm-1800 0l0 330 -600 0 0 -330 600 0z"/>
  <path fill="none" stroke="red" d="M3783 24172c0,138 -112,250 -250,250 -138,0 -250,-112 -250,-250 0,-138 112,-250 250,-250 138,0 250,112 250,250zm250 -2715c0,276 -224,500 -500,500 -276,0 -500,-224 -500,-500 0,-276 224,-500 500,-500 276,0 500,224 500,500zm1600 -2370l0 735 319 0 0 600 -231 0c-9,-9 -22,-15 -36,-15l-752 0c-28,0 -50,22 -50,50l0 230c0,28 23,50 50,50l700 0 0 885 319 0 0 600 -319 0 0 1200 319 0 0 600 -319 0 0 885 -700 0c-28,0 -50,22 -50,50l0 230c0,28 23,50 50,50l752 0c14,0 27,-6 36,-15l231 0 0 600 -319 0 0 735 -450 0 0 315 -600 0 0 -315 -1200 0 0 315 -600 0 0 -315 -1200 0 0 315 -600 0 0 -315 -450 0 0 -735 -300 0 0 -600 300 0 0 -1200 -300 0 0 -600 300 0 0 -1200 -300 0 0 -600 300 0 0 -1200 -300 0 0 -600 300 0 0 -735 450 0 0 -315 600 0 0 315 1200 0 0 -315 600 0 0 315 1200 0 0 -315 600 0 0 315 450 0z"/>
  <path fill="none" stroke="red" d="M16187 21447c0,-608 -492,-1100 -1100,-1100 -608,0 -1100,492 -1100,1100 0,608 492,1100 1100,1100 608,0 1100,-492 1100,-1100zm610 1550c0,-88 -72,-160 -160,-160 -88,0 -160,72 -160,160 0,88 72,160 160,160 88,0 160,-72 160,-160zm0 -3100c0,-88 -72,-160 -160,-160 -88,0 -160,72 -160,160 0,88 72,160 160,160 88,0 160,-72 160,-160zm-3100 0c0,-88 -72,-160 -160,-160 -88,0 -160,72 -160,160 0,88 72,160 160,160 88,0 160,-72 160,-160zm0 3100c0,-88 -72,-160 -160,-160 -88,0 -160,72 -160,160 0,88 72,160 160,160 88,0 160,-72 160,-160zm1640 -1550c0,-138 -112,-250 -250,-250 -138,0 -250,112 -250,250 0,138 112,250 250,250 138,0 250,-112 250,-250zm1850 5085l0 -735 319 0 0 -600 -319 0 0 -1200 319 0 0 -600 -319 0 0 -1200 319 0 0 -600 -319 0 0 -1200 319 0 0 -600 -319 0 0 -735 -450 0 0 -315 -600 0 0 315 -1200 0 0 -315 -600 0 0 315 -1200 0 0 -315 -600 0 0 315 -450 0 0 735 -300 0 0 600 300 0 0 1200 -300 0 0 600 300 0 0 1200 -300 0 0 600 300 0 0 1200 -300 0 0 600 300 0 0 735 450 0 0 315 600 0 0 -315 1200 0 0 315 600 0 0 -315 1200 0 0 315 600 0 0 -315 450 0z"/>
  <path fill="none" stroke="red" d="M9540 24048c0,-138 -112,-250 -250,-250 -138,0 -250,112 -250,250 0,138 112,250 250,250 138,0 250,-112 250,-250zm250 2715c0,-276 -224,-500 -500,-500 -276,0 -500,224 -500,500 0,276 224,500 500,500 276,0 500,-224 500,-500zm1600 2370l0 -735 319 0 0 -600 -231 0c-9,9 -22,15 -36,15l-752 0c-28,0 -50,-22 -50,-50l0 -230c0,-28 23,-50 50,-50l700 0 0 -885 319 0 0 -600 -319 0 0 -1200 319 0 0 -600 -319 0 0 -885 -700 0c-28,0 -50,-22 -50,-50l0 -230c0,-28 23,-50 50,-50l752 0c14,0 27,6 36,15l231 0 0 -600 -319 0 0 -735 -450 0 0 -315 -600 0 0 315 -1200 0 0 -315 -600 0 0 315 -1200 0 0 -315 -600 0 0 315 -450 0 0 735 -300 0 0 600 300 0 0 1200 -300 0 0 600 300 0 0 1200 -300 0 0 600 300 0 0 1200 -300 0 0 600 300 0 0 735 450 0 0 315 600 0 0 -315 1200 0 0 315 600 0 0 -315 1200 0 0 315 600 0 0 -315 450 0z"/>
  <path fill="none" stroke="red" d="M7960 15030l0 1800 4800 0c495,0 900,-405 900,-900l0 0c0,-495 -405,-900 -900,-900l-4800 0zm3290 670c127,0 230,103 230,230 0,127 -103,230 -230,230 -127,0 -230,-103 -230,-230 0,-127 103,-230 230,-230zm1660 230c0,83 -67,150 -150,150 -83,0 -150,-67 -150,-150 0,-83 67,-150 150,-150 83,0 150,67 150,150zm-3000 -645l0 350 -600 0 0 -350 600 0zm0 640l0 350 -600 0 0 -350 600 0zm-1050 -310l0 330 -600 0 0 -330 600 0z"/>
  <path fill="none" stroke="red" d="M1768 16191c-48,-7 -93,-26 -131,-54l0 0 -597 -440c-74,-55 -157,-108 -74,-224l701 -982 0 1c30,-44 64,-86 101,-124l0 1823z"/>
  <path fill="none" stroke="red" d="M8927 8387l-450 0 0 350 450 0 0 -350zm1050 0l-300 0 0 350 300 0 0 -350zm-1050 -940l-450 0 0 350 450 0 0 -350zm450 495c-83,0 -150,67 -150,150 0,83 67,150 150,150 83,0 150,-67 150,-150 0,-83 -67,-150 -150,-150zm0 -750l-900 0c-165,0 -300,135 -300,300l0 1200c0,165 135,300 300,300l900 0c495,0 900,-405 900,-900l0 0c0,-104 -18,-202 -51,-295l0 0 -399 0 0 -350 176 0c-162,-158 -383,-255 -626,-255z"/>
  <path fill="none" stroke="red" d="M22002 27764l0 0zm-300 166l-591 31c-82,4 -153,-60 -158,-142l0 0c-4,-82 60,-153 142,-158l749 -39c14,-1 28,1 41,4 5,0 11,-1 16,-1l200 0c110,0 200,90 200,200l0 800c0,110 -90,200 -200,200l-200 0c-6,0 -11,0 -16,-1 -13,3 -27,4 -41,4l-749 -39c-82,-4 -146,-75 -142,-158l0 0c4,-82 75,-146 158,-142l591 31 0 -590z"/>
  <path fill="none" stroke="red" d="M8765 13074l0 250 -125 0 0 275c61,46 100,118 100,200 0,138 -112,250 -250,250 -138,0 -250,-112 -250,-250 0,-82 39,-154 100,-200l0 -275 -125 0 0 -250 125 0 0 -475 -300 0c-165,0 -300,135 -300,300l0 402c-95,143 -150,314 -150,498 0,497 403,900 900,900 497,0 900,-403 900,-900 0,-184 -55,-355 -150,-498l0 -402c0,-165 -135,-300 -300,-300l-300 0 0 475 125 0z"/>
  <path fill="none" stroke="red" d="M16701 4457c0,-497 403,-900 900,-900 497,0 900,403 900,900 0,497 -403,900 -900,900 -497,0 -900,-403 -900,-900zm650 0c0,-138 112,-250 250,-250 138,0 250,112 250,250 0,138 -112,250 -250,250 -138,0 -250,-112 -250,-250z"/>
  <path fill="none" stroke="red" d="M11023 6371c0,497 -403,900 -900,900 -497,0 -900,-403 -900,-900 0,-497 403,-900 900,-900 497,0 900,403 900,900zm-300 0c0,331 -269,600 -600,600 -331,0 -600,-269 -600,-600 0,-331 269,-600 600,-600 331,0 600,269 600,600zm-350 0c0,138 -112,250 -250,250 -138,0 -250,-112 -250,-250 0,-138 112,-250 250,-250 138,0 250,112 250,250z"/>
  <path fill="none" stroke="red" d="M17264 6007l250 0 0 550 -250 0 0 -550zm725 -625c497,0 900,403 900,900 0,497 -403,900 -900,900 -184,0 -355,-55 -498,-150l-402 0c-165,0 -300,-135 -300,-300l0 -900c0,-165 135,-300 300,-300l402 0c143,-95 314,-150 498,-150zm0 650c138,0 250,112 250,250 0,138 -112,250 -250,250 -138,0 -250,-112 -250,-250 0,-138 112,-250 250,-250z"/>
  <path fill="none" stroke="red" d="M10134 14143l0 -250 550 0 0 250 -550 0zm-625 -725c0,-497 403,-900 900,-900 497,0 900,403 900,900 0,184 -55,355 -150,498l0 402c0,165 -135,300 -300,300l-900 0c-165,0 -300,-135 -300,-300l0 -402c-95,-143 -150,-314 -150,-498zm650 0c0,-138 112,-250 250,-250 138,0 250,112 250,250 0,138 -112,250 -250,250 -138,0 -250,-112 -250,-250z"/>
  <path fill="none" stroke="red" d="M677 12919l0 0zm166 300l31 591c4,82 -60,153 -142,158l0 0c-82,4 -153,-60 -158,-142l-39 -749c-1,-14 1,-28 4,-41 0,-5 -1,-11 -1,-16l0 -200c0,-110 90,-200 200,-200l800 0c110,0 200,90 200,200l0 200c0,6 0,11 -1,16 3,13 4,27 4,41l-39 749c-4,82 -75,146 -158,142l0 0c-82,-4 -146,-75 -142,-158l31 -591 -590 0z"/>
  <path fill="none" stroke="red" d="M23072 999l250 0 0 125 275 0c46,-61 118,-100 200,-100 138,0 250,112 250,250 0,138 -112,250 -250,250 -82,0 -154,-39 -200,-100l-275 0 0 125 -250 0 0 -125 -475 0 0 300c0,165 135,300 300,300l402 0c143,95 314,150 498,150 497,0 900,-403 900,-900 0,-497 -403,-900 -900,-900 -184,0 -355,55 -498,150l-402 0c-165,0 -300,135 -300,300l0 300 475 0 0 -125z"/>
  <path fill="none" stroke="red" d="M8852 6295c0,497 -403,900 -900,900 -497,0 -900,-403 -900,-900 0,-497 403,-900 900,-900 497,0 900,403 900,900zm-650 0c0,138 -112,250 -250,250 -138,0 -250,-112 -250,-250 0,-138 112,-250 250,-250 138,0 250,112 250,250z"/>
  <path fill="none" stroke="red" d="M16730 8108c0,-497 403,-900 900,-900 497,0 900,403 900,900 0,497 -403,900 -900,900 -497,0 -900,-403 -900,-900zm300 0c0,-331 269,-600 600,-600 331,0 600,269 600,600 0,331 -269,600 -600,600 -331,0 -600,-269 -600,-600zm350 0c0,-138 112,-250 250,-250 138,0 250,112 250,250 0,138 -112,250 -250,250 -138,0 -250,-112 -250,-250z"/>
  <path fill="none" stroke="red" d="M23082 2886l250 0 0 550 -250 0 0 -550zm725 -625c497,0 900,403 900,900 0,497 -403,900 -900,900 -184,0 -355,-55 -498,-150l-402 0c-165,0 -300,-135 -300,-300l0 -900c0,-165 135,-300 300,-300l402 0c143,-95 314,-150 498,-150zm0 650c138,0 250,112 250,250 0,138 -112,250 -250,250 -138,0 -250,-112 -250,-250 0,-138 112,-250 250,-250z"/>
  <path fill="none" stroke="red" d="M12508 13330l0 250 -550 0 0 -250 550 0zm625 725c0,497 -403,900 -900,900 -497,0 -900,-403 -900,-900 0,-184 55,-355 150,-498l0 -402c0,-165 135,-300 300,-300l900 0c165,0 300,135 300,300l0 402c95,143 150,314 150,498zm-650 0c0,138 -112,250 -250,250 -138,0 -250,-112 -250,-250 0,-138 112,-250 250,-250 138,0 250,112 250,250z"/>
  <path fill="none" stroke="red" d="M24173 20156l330 0 0 600 -330 0 0 -600zm0 1800l330 0 0 600 -330 0 0 -600zm0 1800l330 0 0 600 -330 0 0 -600zm0 1800l330 0 0 600 -330 0 0 -600zm-2685 -6135l-600 0 0 -330 600 0 0 330zm2100 0l-600 0 0 -330 600 0 0 330zm-4200 0l-600 0 0 -330 600 0 0 330zm-1500 -615l6600 0c165,0 300,135 300,300l0 8100c0,165 -135,300 -300,300l-6600 0c-165,0 -300,-135 -300,-300l0 -8100c0,-165 135,-300 300,-300zm3600 8415l-600 0 0 -330 600 0 0 330zm2100 0l-600 0 0 -330 600 0 0 330zm-4200 0l-600 0 0 -330 600 0 0 330zm-1507 -7065l330 0 0 600 -330 0 0 -600zm0 1800l330 0 0 600 -330 0 0 -600zm0 1800l330 0 0 600 -330 0 0 -600zm0 1800l330 0 0 600 -330 0 0 -600z"/>
  <path fill="none" stroke="red" d="M23970 8356l330 0 0 600 -330 0 0 -600zm0 1800l330 0 0 600 -330 0 0 -600zm0 1800l330 0 0 600 -330 0 0 -600zm0 1800l330 0 0 600 -330 0 0 -600zm15 -6750l300 0c165,0 300,135 300,300l0 8100c0,165 -135,300 -300,300l-300 0c-165,0 -300,-135 -300,-300l0 -8100c0,-165 135,-300 300,-300z"/>
  <path fill="none" stroke="red" d="M5096 28149c28,0 50,22 50,50 0,28 -22,50 -50,50 -28,0 -50,-22 -50,-50 0,-28 22,-50 50,-50zm-2720 0c28,0 50,22 50,50 0,28 -22,50 -50,50 -28,0 -50,-22 -50,-50 0,-28 22,-50 50,-50zm235 -540l2250 0 0 1180 -2250 0 0 -1180zm-2260 1490l0 -1200c0,-165 135,-300 300,-300l1252 0c124,-349 458,-600 848,-600l1950 0c495,0 900,405 900,900l0 600 0 0c0,495 -405,900 -900,900l-1950 0 -2100 0c-165,0 -300,-135 -300,-300z"/>
  <path fill="none" stroke="red" d="M19732 17981l0 330 -600 0 0 -330 600 0zm-1800 0l0 330 -600 0 0 -330 600 0zm-1800 0l0 330 -600 0 0 -330 600 0zm3600 -6300l0 330 -600 0 0 -330 600 0zm-1800 0l0 330 -600 0 0 -330 600 0zm-1800 0l0 330 -600 0 0 -330 600 0zm3600 -11092l0 330 -600 0 0 -330 600 0zm-1800 0l0 330 -600 0 0 -330 600 0zm-1800 0l0 330 -600 0 0 -330 600 0zm1200 14457l0 1200c0,83 -68,150 -150,150l-600 0c-83,0 -150,-67 -150,-150l0 -1200c0,-83 68,-150 150,-150l600 0c83,0 150,68 150,150zm2350 -2328l0 1000c0,55 -45,100 -100,100l-900 0c-55,0 -100,-45 -100,-100l0 -1000c0,-55 45,-100 100,-100l900 0c55,0 100,45 100,100zm0 1778l0 1000c0,55 -45,100 -100,100l-900 0c-55,0 -100,-45 -100,-100l0 -1000c0,-55 45,-100 100,-100l900 0c55,0 100,45 100,100zm0 1778l0 1000c0,55 -45,100 -100,100l-900 0c-55,0 -100,-45 -100,-100l0 -1000c0,-55 45,-100 100,-100l900 0c55,0 100,45 100,100zm500 2322l0 -1200 300 0 0 -600 -300 0 0 -1500 300 0 0 -600 -300 0 0 -1500 300 0 0 -600 -300 0 0 -900c0,-2724 -4200,-1200 -4200,-5400 0,-4200 4221,-2744 4204,-5387l-4 -613 -5100 0 0 600 -300 0 0 600 300 0 0 1200 -300 0 0 600 300 0 0 1200 -300 0 0 600 300 0 0 1200 -300 0 0 600 300 0 0 1200 -300 0 0 600 300 0 0 1200 -300 0 0 600 300 0 0 1200 -300 0 0 600 300 0 0 1350 -300 0 0 600 300 0 0 1500 -300 0 0 600 300 0 0 1350 -300 0 0 600 300 0 0 300 5100 0z"/>
  <path fill="none" stroke="red" d="M20266 27808l0 0zm-300 166l-591 31c-82,4 -153,-60 -158,-142l0 0c-4,-82 60,-153 142,-158l749 -39c14,-1 28,1 41,4 5,0 11,-1 16,-1l200 0c110,0 200,90 200,200l0 800c0,110 -90,200 -200,200l-200 0c-6,0 -11,0 -16,-1 -13,3 -27,4 -41,4l-749 -39c-82,-4 -146,-75 -142,-158l0 0c4,-82 75,-146 158,-142l591 31 0 -590z"/>
  <path fill="none" stroke="red" d="M15184 29093l600 0 0 330 -600 0 0 -330zm9600 615l-10800 0c165,0 300,-135 300,-300l0 -600 1950 0c71,0 79,150 150,150l6000 0c71,0 79,-150 150,-150l1950 0 0 600c0,165 135,300 300,300zm-1800 -615l600 0 0 330 -600 0 0 -330z"/>
  <path fill="none" fill-rule="nonzero" stroke="lime" d="M18125 14269l0 51 -72 51 72 51 0 51 -297 0c-7,0 -13,-2 -17,-6 -4,-4 -6,-9 -6,-15 0,-6 2,-11 7,-15 4,-4 10,-6 17,-6l238 0 -55 -40 -9 0c-7,0 -13,-2 -17,-6 -4,-4 -6,-9 -6,-15 0,-6 2,-11 7,-15 4,-4 10,-6 17,-6l9 0 55 -40 -238 0c-7,0 -13,-2 -17,-6 -4,-4 -6,-9 -6,-15 0,-6 2,-11 7,-15 4,-4 10,-6 17,-6l297 0zm-128 385c0,-2 0,-4 -1,-6 -1,-2 -2,-4 -4,-7l-15 -18c-2,-2 -4,-4 -7,-5 -3,-1 -6,-2 -8,-2l-81 0c-3,0 -6,1 -8,2 -3,1 -5,3 -7,5l-15 18c-1,2 -3,4 -3,6 -1,2 -1,4 -1,7l0 45c0,2 0,5 1,7 1,2 2,4 3,6l15 18c2,2 4,4 7,5 3,1 6,2 8,2l81 0c3,0 6,-1 8,-2 3,-1 5,-3 7,-5l15 -18c2,-2 3,-4 4,-6 1,-2 1,-4 1,-6l0 -45zm41 0l0 46c0,7 -1,14 -4,21 -3,7 -6,13 -11,19l-14 18c-6,7 -13,12 -21,16 -9,4 -17,6 -26,6l-81 0c-9,0 -17,-2 -26,-6 -8,-4 -15,-9 -21,-16l-15 -18c-5,-6 -8,-12 -11,-19 -2,-7 -4,-14 -4,-21l0 -46c0,-7 1,-14 4,-20 2,-7 6,-13 11,-19l15 -18c6,-7 13,-12 21,-16 8,-4 17,-6 26,-6l81 0c9,0 18,2 26,6 8,4 16,9 21,16l14 18c5,6 8,12 11,19 2,7 4,13 4,20zm47 309l-47 0 0 79c0,7 -2,13 -6,17 -4,4 -9,6 -15,6 -6,0 -11,-2 -15,-7 -4,-4 -6,-10 -6,-17l0 -79 -130 0c-6,0 -10,2 -14,6 -4,4 -6,8 -6,14l0 41c0,4 1,8 4,12 2,3 6,6 11,8 0,0 2,1 3,1 11,4 17,10 17,20 0,6 -2,10 -6,14 -4,4 -8,6 -14,6 -14,0 -27,-6 -39,-18 -12,-12 -18,-27 -18,-43l0 -41c0,-17 6,-32 18,-44 12,-12 27,-18 44,-18l130 0 0 -17c0,-7 2,-13 6,-17 4,-4 9,-6 15,-6 6,0 11,2 15,7 4,4 6,10 6,17l0 17 47 0c7,0 13,2 17,6 4,4 6,9 6,15 0,6 -2,11 -6,15 -4,4 -10,6 -16,6zm-88 302c0,-2 0,-4 -1,-6 -1,-2 -2,-4 -4,-7l-15 -18c-2,-2 -4,-4 -7,-5 -3,-1 -6,-2 -8,-2l-81 0c-3,0 -6,1 -8,2 -3,1 -5,3 -7,5l-15 18c-1,2 -3,4 -3,6 -1,2 -1,4 -1,7l0 45c0,2 0,5 1,7 1,2 2,4 3,6l15 18c2,2 4,4 7,5 3,1 6,2 8,2l81 0c3,0 6,-1 8,-2 3,-1 5,-3 7,-5l15 -18c2,-2 3,-4 4,-6 1,-2 1,-4 1,-6l0 -45zm41 0l0 46c0,7 -1,14 -4,21 -3,7 -6,13 -11,19l-14 18c-6,7 -13,12 -21,16 -9,4 -17,6 -26,6l-81 0c-9,0 -17,-2 -26,-6 -8,-4 -15,-9 -21,-16l-15 -18c-5,-6 -8,-12 -11,-19 -2,-7 -4,-14 -4,-21l0 -46c0,-7 1,-14 4,-20 2,-7 6,-13 11,-19l15 -18c6,-7 13,-12 21,-16 8,-4 17,-6 26,-6l81 0c9,0 18,2 26,6 8,4 16,9 21,16l14 18c5,6 8,12 11,19 2,7 4,13 4,20zm-23 268l-22 0 30 34c5,5 8,11 11,18 3,7 4,14 4,21l0 27c0,17 -6,31 -18,44 -12,12 -26,18 -43,18l-9 0c-7,0 -13,-2 -17,-6 -4,-4 -6,-9 -6,-15 0,-6 2,-11 7,-15 4,-4 10,-6 17,-6l9 0c5,0 10,-2 14,-6 4,-4 6,-9 6,-14l0 -27c0,-2 -1,-5 -2,-8 -1,-3 -3,-5 -4,-7l-52 -59 -111 0c-7,0 -13,-2 -17,-6 -4,-4 -6,-9 -6,-15 0,-6 2,-11 7,-15 4,-4 10,-6 17,-6l187 0c7,0 13,2 17,6 4,4 6,9 6,15 0,6 -2,11 -6,15 -4,4 -10,6 -16,6z"/>
  <path fill="none" fill-rule="nonzero" stroke="lime" d="M18030 12849l-114 -34 0 67 114 -33zm72 22l-269 78c-1,0 -3,1 -4,1 -1,0 -3,0 -4,0 -6,0 -10,-2 -14,-6 -4,-4 -6,-9 -6,-14 0,-5 2,-9 5,-13 3,-4 7,-6 12,-8l53 -15 0 -90 -52 -16c-6,-2 -10,-5 -13,-8 -3,-3 -4,-8 -4,-13 0,-5 2,-10 6,-14 4,-4 9,-6 14,-6 2,0 4,0 5,0 1,0 2,0 3,1l268 78c9,2 15,5 18,9 3,3 5,8 5,14 0,6 -2,10 -5,14 -3,3 -9,6 -18,9zm-87 222l-22 0 30 34c5,5 8,11 11,18 3,7 4,14 4,21l0 27c0,17 -6,31 -18,44 -12,12 -26,18 -43,18l-9 0c-7,0 -13,-2 -17,-6 -4,-4 -6,-9 -6,-15 0,-6 2,-11 7,-15 4,-4 10,-6 17,-6l9 0c5,0 10,-2 14,-6 4,-4 6,-9 6,-14l0 -27c0,-2 -1,-5 -2,-8 -1,-3 -3,-5 -4,-7l-52 -59 -111 0c-7,0 -13,-2 -17,-6 -4,-4 -6,-9 -6,-15 0,-6 2,-11 7,-15 4,-4 10,-6 17,-6l187 0c7,0 13,2 17,6 4,4 6,9 6,15 0,6 -2,11 -6,15 -4,4 -10,6 -16,6zm-25 467l-162 5 -1 0c-6,0 -12,-2 -16,-6 -4,-4 -7,-9 -7,-14 0,-6 2,-11 6,-15 4,-4 10,-6 16,-6l161 -5c2,0 4,-1 6,-2 2,-1 2,-3 2,-6 0,-1 0,-2 -1,-3 0,-1 -1,-2 -2,-3l-22 -26 -144 0c-7,0 -13,-2 -17,-6 -4,-4 -6,-9 -6,-15 0,-6 2,-11 7,-15 4,-4 10,-6 17,-6l160 0c2,0 4,-1 6,-3 2,-2 3,-4 3,-7 0,-1 0,-2 -1,-3 0,-1 -1,-2 -2,-3l-24 -29 -142 0c-7,0 -13,-2 -17,-6 -4,-4 -6,-9 -6,-15 0,-6 2,-11 7,-15 4,-4 10,-6 17,-6l187 0c7,0 13,2 17,6 4,4 6,9 6,15 0,5 -1,9 -4,12 -3,3 -6,6 -12,8l6 7c3,5 6,9 7,14 2,5 2,10 2,16 0,8 -2,15 -5,22 -3,7 -8,13 -15,19l4 5c6,7 10,14 12,19 2,5 3,10 3,16 0,14 -5,26 -14,36 -9,9 -20,14 -34,15z"/>
  <path fill="none" fill-rule="nonzero" stroke="lime" d="M18125 16256l0 102c0,15 -5,28 -16,39 -11,11 -23,17 -37,17 -7,0 -13,-2 -17,-6 -4,-4 -6,-9 -6,-15 0,-6 2,-11 5,-14 3,-3 10,-6 20,-8 3,0 5,-2 7,-5 2,-3 3,-6 3,-9l0 -102c0,-1 -1,-2 -2,-3 -1,-1 -2,-2 -3,-2 -1,0 -1,0 -2,0 -1,0 -1,1 -2,1l-191 149c-6,4 -11,7 -17,10 -5,2 -11,3 -16,3 -13,0 -24,-5 -33,-14 -9,-9 -14,-20 -14,-33l0 -102c0,-15 6,-28 16,-39 11,-11 23,-17 37,-17 7,0 13,2 17,6 4,4 6,9 6,15 0,6 -2,10 -5,14 -3,3 -10,6 -20,8 -3,0 -5,2 -7,5 -2,3 -3,6 -3,8l0 102c0,1 1,3 1,4 1,1 2,1 3,1 0,0 1,0 2,0 1,0 1,-1 2,-1l191 -149c6,-4 11,-7 17,-10 5,-2 11,-3 16,-3 13,0 24,5 33,14 9,9 14,20 14,33zm-40 341l-47 0 0 79c0,7 -2,13 -6,17 -4,4 -9,6 -15,6 -6,0 -11,-2 -15,-7 -4,-4 -6,-10 -6,-17l0 -79 -130 0c-6,0 -10,2 -14,6 -4,4 -6,8 -6,14l0 41c0,4 1,8 4,12 2,3 6,6 11,8 0,0 2,1 3,1 11,4 17,10 17,20 0,6 -2,10 -6,14 -4,4 -8,6 -14,6 -14,0 -27,-6 -39,-18 -12,-12 -18,-27 -18,-43l0 -41c0,-17 6,-32 18,-44 12,-12 27,-18 44,-18l130 0 0 -17c0,-7 2,-13 6,-17 4,-4 9,-6 15,-6 6,0 11,2 15,7 4,4 6,10 6,17l0 17 47 0c7,0 13,2 17,6 4,4 6,9 6,15 0,6 -2,11 -6,15 -4,4 -10,6 -16,6zm-88 302c0,-2 0,-4 -1,-6 -1,-2 -2,-4 -4,-7l-15 -18c-2,-2 -4,-4 -7,-5 -3,-1 -6,-2 -8,-2l-81 0c-3,0 -6,1 -8,2 -3,1 -5,3 -7,5l-15 18c-1,2 -3,4 -3,6 -1,2 -1,4 -1,7l0 45c0,2 0,5 1,7 1,2 2,4 3,6l15 18c2,2 4,4 7,5 3,1 6,2 8,2l81 0c3,0 6,-1 8,-2 3,-1 5,-3 7,-5l15 -18c2,-2 3,-4 4,-6 1,-2 1,-4 1,-6l0 -45zm41 0l0 46c0,7 -1,14 -4,21 -3,7 -6,13 -11,19l-14 18c-6,7 -13,12 -21,16 -9,4 -17,6 -26,6l-81 0c-9,0 -17,-2 -26,-6 -8,-4 -15,-9 -21,-16l-15 -18c-5,-6 -8,-12 -11,-19 -2,-7 -4,-14 -4,-21l0 -46c0,-7 1,-14 4,-20 2,-7 6,-13 11,-19l15 -18c6,-7 13,-12 21,-16 8,-4 17,-6 26,-6l81 0c9,0 18,2 26,6 8,4 16,9 21,16l14 18c5,6 8,12 11,19 2,7 4,13 4,20zm-33 324c0,-2 -1,-5 -1,-7 -1,-2 -2,-5 -4,-7l-37 -37c-2,-2 -4,-3 -6,-4 -2,-1 -5,-1 -8,-1l-53 0c-3,0 -6,0 -8,1 -2,1 -4,2 -6,4l-36 37c-2,2 -3,4 -5,7 -1,2 -2,5 -2,7l0 9c0,2 1,5 2,8 1,3 3,5 4,7l29 34c1,2 3,3 6,4 3,1 6,2 8,2l69 0c3,0 5,-1 8,-2 3,-1 5,-3 6,-4l29 -34c2,-2 3,-4 4,-7 1,-3 1,-5 1,-8l0 -9zm19 -56l-8 0 10 10c7,7 13,15 16,22 4,8 5,16 5,24l0 11c0,7 -1,13 -4,20 -3,7 -6,13 -11,19l-29 34c-6,7 -13,12 -21,16 -8,4 -17,6 -26,6l-69 0c-9,0 -18,-2 -26,-6 -8,-4 -15,-9 -21,-16l-29 -35c-5,-5 -8,-12 -11,-18 -3,-7 -4,-14 -4,-21l0 -9c0,-8 2,-16 5,-24 4,-8 9,-15 16,-23l10 -10 -87 0c-7,0 -13,-2 -17,-6 -4,-4 -6,-9 -6,-15 0,-6 2,-11 7,-15 4,-4 10,-6 17,-6l282 0c7,0 13,2 17,6 4,4 6,9 6,15 0,6 -2,11 -7,15 -4,4 -10,6 -17,6z"/>
  <path fill="none" stroke="red" d="M20547 15941l2100 0 0 2700 -2100 0 0 -2700zm775 1925l0 -250 550 0 0 250 -550 0zm275 -975c138,0 250,112 250,250 0,138 -112,250 -250,250 -138,0 -250,-112 -250,-250 0,-138 112,-250 250,-250zm0 1450c28,0 50,22 50,50 0,28 -22,50 -50,50 -28,0 -50,-22 -50,-50 0,-28 22,-50 50,-50z"/>
  <path fill="none" stroke="red" d="M22601 12179l-250 0 0 -125 -275 0c-46,61 -118,100 -200,100 -138,0 -250,-112 -250,-250 0,-138 112,-250 250,-250 82,0 154,39 200,100l275 0 0 -125 250 0 0 125 475 0 0 -100c0,-110 90,-200 200,-200l100 0 0 -600 -300 0 0 -305 -600 0 0 305 -1800 0 0 2100 1800 0 0 300 600 0 0 -300 300 0 0 -600 -100 0c-110,0 -200,-90 -200,-200l0 -100 -475 0 0 125z"/>
  <path fill="none" stroke="red" d="M22616 14725l-250 0 0 -550 250 0 0 550zm-975 -275c0,-138 112,-250 250,-250 138,0 250,112 250,250 0,138 -112,250 -250,250 -138,0 -250,-112 -250,-250zm-950 1050l0 -2100 750 0 0 -305 600 0 0 305 1350 0 0 600 -100 0c-110,0 -200,90 -200,200l0 500c0,110 90,200 200,200l100 0 0 600 -1350 0 0 300 -600 0 0 -300 -750 0z"/>
  <path fill="none" stroke="red" d="M22603 4131l2100 0 0 2400 -711 0c-22,18 -41,35 -55,50 95,100 418,300 284,300l-1136 0c-134,0 189,-200 284,-300 -14,-15 -33,-32 -55,-50l-711 0 0 -2400zm775 1625l0 -250 550 0 0 250 -550 0zm275 -975c138,0 250,112 250,250 0,138 -112,250 -250,250 -138,0 -250,-112 -250,-250 0,-138 112,-250 250,-250zm0 1450c28,0 50,22 50,50 0,28 -22,50 -50,50 -28,0 -50,-22 -50,-50 0,-28 22,-50 50,-50z"/>
  <path fill="none" stroke="red" d="M22590 9644l-250 0 0 -550 250 0 0 550zm-975 -275c0,-138 112,-250 250,-250 138,0 250,112 250,250 0,138 -112,250 -250,250 -138,0 -250,-112 -250,-250zm-950 1050l0 -2100 750 0 0 -305 600 0 0 305 1350 0 0 600 -100 0c-110,0 -200,90 -200,200l0 500c0,110 90,200 200,200l100 0 0 600 -1350 0 0 300 -600 0 0 -300 -750 0z"/>
  <path fill="none" stroke="red" d="M22703 15929l2100 0 0 2700 -2100 0 0 -2700zm775 1925l0 -250 550 0 0 250 -550 0zm275 -975c138,0 250,112 250,250 0,138 -112,250 -250,250 -138,0 -250,-112 -250,-250 0,-138 112,-250 250,-250zm0 1450c28,0 50,22 50,50 0,28 -22,50 -50,50 -28,0 -50,-22 -50,-50 0,-28 22,-50 50,-50z"/>
  <path fill="none" stroke="red" d="M21503 2388l-373 -373 0 0c-94,-95 -153,-226 -153,-369l0 -260c0,-289 236,-525 525,-525l0 0c289,0 525,236 525,525l0 260c0,144 -58,274 -153,369l0 0 -373 373zm-600 4861l0 -900 -300 0 0 -450 300 0 0 -2550c-165,0 -300,-135 -300,-300l0 -2250c0,-165 135,-300 300,-300l1200 0c165,0 300,135 300,300l0 2250c0,165 -135,300 -300,300l0 2550 300 0 0 450 -300 0 0 900 300 0 0 399 -1800 0 0 -399 300 0zm550 -600c0,-28 22,-50 50,-50 28,0 50,22 50,50 0,28 -22,50 -50,50 -28,0 -50,-22 -50,-50zm0 300c0,-28 22,-50 50,-50 28,0 50,22 50,50 0,28 -22,50 -50,50 -28,0 -50,-22 -50,-50z"/>
  <path fill="none" stroke="red" d="M12779 29308l-373 -373 0 0c-94,-95 -153,-226 -153,-369l0 -260c0,-237 159,-438 375,-503l0 -308 -125 0 0 -250 125 0 0 -325 -450 0c-165,0 -300,135 -300,300l0 2250c0,165 135,300 300,300l1200 0c165,0 300,-135 300,-300l0 -2250c0,-165 -135,-300 -300,-300l-450 0 0 325 125 0 0 250 -125 0 0 308c216,65 375,266 375,503l0 260c0,144 -58,274 -153,369l0 0 -373 373z"/>
  <path fill="none" stroke="red" d="M19595 5421l-373 -373 0 0c-94,-95 -153,-226 -153,-369l0 -260c0,-289 236,-525 525,-525l0 0c289,0 525,236 525,525l0 260c0,144 -58,274 -153,369l0 0 -373 373zm-275 -2064l0 -250 550 0 0 250 -550 0zm225 5575c0,-28 22,-50 50,-50 28,0 50,22 50,50 0,28 -22,50 -50,50 -28,0 -50,-22 -50,-50zm0 300c0,-28 22,-50 50,-50 28,0 50,22 50,50 0,28 -22,50 -50,50 -28,0 -50,-22 -50,-50zm-100 -1800l0 -300c0,-83 68,-150 150,-150l0 0c83,0 150,68 150,150l0 300c0,83 -68,150 -150,150l0 0c-83,0 -150,-68 -150,-150zm-450 1950l0 -750 -300 0 0 -450 300 0 0 -2550c-165,0 -300,-135 -300,-300l0 -2250c0,-165 135,-300 300,-300l1200 0c165,0 300,135 300,300l0 2250c0,165 -135,300 -300,300l0 2550 300 0 0 450 -300 0 0 750 300 0 0 300 -300 0 -1200 0 -300 0 0 -300 300 0z"/>
  <path fill="none" stroke="red" d="M5633 2096l300 0 0 600 -300 0 0 7200 300 0 0 600 -300 0 0 2100 300 0 0 600 -300 0 0 1500 300 0 0 600 -300 0 0 1500 300 0 0 600 -300 0 0 1200 -5100 0 0 -300 -300 0 0 -600 300 0 1238 0c144,0 263,-118 263,-263l0 -4875c0,-144 -118,-263 -263,-263l-1238 0 -300 0 0 -600 300 0 0 -1200 -300 0 0 -600 300 0 0 -1200 -300 0 0 -600 300 0 0 -1200 -300 0 0 -600 300 0 0 -1200 -300 0 0 -600 300 0 0 -1200 -300 0 0 -600 300 0 0 -1200 -300 0 0 -600 300 0 0 -600 5100 0 0 1800zm-3490 2650c0,88 -72,160 -160,160 -88,0 -160,-72 -160,-160 0,-88 72,-160 160,-160 88,0 160,72 160,160zm0 3100c0,88 -72,160 -160,160 -88,0 -160,-72 -160,-160 0,-88 72,-160 160,-160 88,0 160,72 160,160zm3100 0c0,88 -72,160 -160,160 -88,0 -160,-72 -160,-160 0,-88 72,-160 160,-160 88,0 160,72 160,160zm0 -3100c0,88 -72,160 -160,160 -88,0 -160,-72 -160,-160 0,-88 72,-160 160,-160 88,0 160,72 160,160zm-610 1550c0,608 -492,1100 -1100,1100 -160,0 -313,-34 -450,-96 -137,62 -290,96 -450,96 -608,0 -1100,-492 -1100,-1100 0,-608 492,-1100 1100,-1100 160,0 313,34 450,96 137,-62 290,-96 450,-96 608,0 1100,492 1100,1100zm-3050 -5707l0 330 -600 0 0 -330 600 0zm1800 0l0 330 -600 0 0 -330 600 0zm1800 0l0 330 -600 0 0 -330 600 0zm-3600 11092l0 330 -600 0 0 -330 600 0zm1800 0l0 330 -600 0 0 -330 600 0zm1800 0l0 330 -600 0 0 -330 600 0zm-3600 6300l0 330 -600 0 0 -330 600 0zm1800 0l0 330 -600 0 0 -330 600 0zm1800 0l0 330 -600 0 0 -330 600 0zm-3940 -13235c0,88 -72,160 -160,160 -88,0 -160,-72 -160,-160 0,-88 72,-160 160,-160 88,0 160,72 160,160zm0 3100c0,88 -72,160 -160,160 -88,0 -160,-72 -160,-160 0,-88 72,-160 160,-160 88,0 160,72 160,160zm3100 0c0,88 -72,160 -160,160 -88,0 -160,-72 -160,-160 0,-88 72,-160 160,-160 88,0 160,72 160,160zm0 -3100c0,88 -72,160 -160,160 -88,0 -160,-72 -160,-160 0,-88 72,-160 160,-160 88,0 160,72 160,160zm-810 7625l0 1650c0,41 -34,75 -75,75l-450 0c-41,0 -75,-34 -75,-75l0 -1650c0,-41 34,-75 75,-75l450 0c41,0 75,34 75,75z"/>
  <path fill="none" stroke="red" d="M4589 6296c0,145 -251,174 -306,308 -55,134 101,332 -1,434 -102,102 -301,-54 -434,1 -134,55 -163,306 -308,306 -145,0 -174,-251 -308,-306 -134,-55 -332,101 -434,-1 -102,-102 54,-301 -1,-434 -55,-134 -306,-163 -306,-308 0,-145 251,-174 306,-308 55,-134 -101,-332 1,-434 102,-102 301,54 434,-1 134,-55 163,-306 308,-306 145,0 174,251 308,306 134,55 332,-101 434,1 102,102 -54,301 1,434 55,134 306,163 306,308zm-905 0c0,80 -65,145 -145,145 -80,0 -145,-65 -145,-145 0,-80 65,-145 145,-145 80,0 145,65 145,145z"/>
  <path fill="none" stroke="red" d="M6509 19989c-28,0 -50,-22 -50,-50 0,-28 22,-50 50,-50 28,0 50,22 50,50 0,28 -22,50 -50,50zm2720 0c-28,0 -50,-22 -50,-50 0,-28 22,-50 50,-50 28,0 50,22 50,50 0,28 -22,50 -50,50zm-2475 -350c0,83 67,150 150,150 83,0 150,-67 150,-150 0,-83 -67,-150 -150,-150 -83,0 -150,67 -150,150zm3000 -645l0 350 600 0 0 -350 -600 0zm0 640l0 350 600 0 0 -350 -600 0zm1050 -310l0 330 600 0 0 -330 -600 0zm900 -585l0 1800 -2002 0c-124,349 -458,600 -848,600l-1950 0c-495,0 -900,-405 -900,-900l0 -600 0 0c0,-495 405,-900 900,-900l1950 0 2850 0zm-4180 1207c0,-2 0,-4 0,-7l0 0 0 0c0,-2 0,-4 0,-7 4,-156 133,-283 290,-283l75 0c105,-190 305,-310 525,-310 331,0 600,269 600,600 0,331 -269,600 -600,600 -220,0 -420,-120 -525,-310l-75 0c-157,0 -286,-127 -290,-283z"/>
  <path fill="none" fill-rule="nonzero" stroke="lime" d="M16272 12569l-252 0 51 77c1,2 3,4 4,6 22,32 33,64 33,95l0 67c0,43 -15,80 -45,111 -30,30 -67,46 -113,48l-381 13 -3 0c-17,0 -30,-5 -41,-15 -11,-10 -17,-22 -17,-36 0,-16 5,-29 15,-39 10,-10 24,-16 41,-17l385 -13c15,-1 27,-6 37,-16 10,-10 14,-22 14,-36l0 -68c0,-6 -1,-12 -3,-17 -2,-5 -6,-12 -12,-21l-94 -140 -324 0c-18,0 -32,-5 -43,-15 -11,-10 -17,-23 -17,-39 0,-16 6,-29 17,-39 11,-10 25,-15 43,-15l704 0c18,0 33,5 44,15 11,10 16,23 16,39 0,15 -6,28 -17,38 -11,10 -25,15 -43,15zm60 678l0 466c0,18 -5,32 -15,43 -10,11 -23,17 -39,17 -15,0 -28,-6 -38,-17 -10,-11 -15,-25 -15,-43l0 -360 -251 0 0 151c0,17 -5,31 -15,42 -10,11 -23,16 -39,16 -16,0 -29,-5 -39,-16 -10,-11 -15,-25 -15,-42l0 -151 -251 0 0 360c0,18 -5,32 -15,43 -10,11 -23,17 -39,17 -16,0 -29,-6 -39,-17 -10,-11 -15,-25 -15,-43l0 -466 823 0zm-282 1203c18,0 32,5 43,15 11,10 16,23 16,39 0,16 -6,29 -17,39 -11,10 -25,15 -42,15l-569 0c-23,0 -45,-5 -66,-15 -22,-10 -40,-24 -55,-42l-38 -47c-12,-15 -21,-32 -27,-48 -6,-17 -9,-34 -9,-52l0 -208c0,-17 5,-32 15,-43 10,-11 23,-17 39,-17 16,0 29,6 39,17 10,11 15,25 15,43l0 207c0,8 1,14 3,19 2,5 4,10 9,15l39 47c4,5 10,9 17,12 7,3 14,5 23,5l99 0 -35 -40c-12,-13 -21,-29 -27,-47 -6,-18 -10,-36 -10,-55l0 -82c0,-19 3,-36 9,-53 6,-17 15,-33 28,-48l28 -37c13,-16 30,-30 53,-41 22,-11 44,-17 64,-17l232 0c22,0 45,5 67,16 22,11 40,24 53,41l28 37c12,16 22,32 28,48 6,17 9,35 9,53l0 82c0,19 -3,37 -10,55 -7,18 -16,34 -27,47l-34 40 12 0zm-309 1l136 0c7,0 14,-1 21,-5 7,-3 12,-7 15,-11l74 -90c5,-6 9,-12 11,-19 3,-6 4,-12 4,-18l0 -82c0,-7 -1,-13 -3,-19 -2,-6 -6,-12 -12,-18l-28 -35c-4,-4 -9,-8 -16,-11 -7,-3 -14,-4 -21,-4l-227 0c-7,0 -13,1 -20,4 -7,3 -12,7 -15,11l-28 35 -1 2c-10,12 -14,24 -14,35l0 82c0,7 1,14 4,19 2,6 6,12 12,18l72 90c4,4 9,8 16,11 7,3 14,5 21,5zm309 784c18,0 32,5 43,15 11,10 16,23 16,39 0,16 -6,29 -17,39 -11,10 -25,15 -42,15l-569 0c-23,0 -45,-5 -66,-15 -22,-10 -40,-24 -55,-42l-38 -47c-12,-15 -21,-32 -27,-48 -6,-17 -9,-34 -9,-52l0 -208c0,-17 5,-32 15,-43 10,-11 23,-17 39,-17 16,0 29,6 39,17 10,11 15,25 15,43l0 207c0,8 1,14 3,19 2,5 4,10 9,15l39 47c4,5 10,9 17,12 7,3 14,5 23,5l99 0 -35 -40c-12,-13 -21,-29 -27,-47 -6,-18 -10,-36 -10,-55l0 -82c0,-19 3,-36 9,-53 6,-17 15,-33 28,-48l28 -37c13,-16 30,-30 53,-41 22,-11 44,-17 64,-17l232 0c22,0 45,5 67,16 22,11 40,24 53,41l28 37c12,16 22,32 28,48 6,17 9,35 9,53l0 82c0,19 -3,37 -10,55 -7,18 -16,34 -27,47l-34 40 12 0zm-309 1l136 0c7,0 14,-1 21,-5 7,-3 12,-7 15,-11l74 -90c5,-6 9,-12 11,-19 3,-6 4,-12 4,-18l0 -82c0,-7 -1,-13 -3,-19 -2,-6 -6,-12 -12,-18l-28 -35c-4,-4 -9,-8 -16,-11 -7,-3 -14,-4 -21,-4l-227 0c-7,0 -13,1 -20,4 -7,3 -12,7 -15,11l-28 35 -1 2c-10,12 -14,24 -14,35l0 82c0,7 1,14 4,19 2,6 6,12 12,18l72 90c4,4 9,8 16,11 7,3 14,5 21,5zm127 473l-251 0 0 204c0,30 10,55 31,76 21,21 46,32 75,32l38 0c29,0 54,-11 76,-32 21,-21 32,-47 32,-76l0 -204zm358 0l-251 0 0 204c0,30 10,55 31,76 21,21 46,32 76,32l38 0c29,0 54,-11 75,-32 21,-21 32,-47 32,-76l0 -204zm107 -107l0 311c0,58 -21,109 -63,151 -42,42 -92,64 -150,64l-37 0c-31,0 -62,-7 -91,-20 -30,-14 -53,-31 -70,-54 -22,24 -47,42 -74,55 -28,13 -57,19 -86,19l-37 0c-59,0 -109,-21 -151,-63 -42,-42 -63,-93 -63,-151l0 -311 823 0zm-329 990c0,-6 -1,-11 -3,-17 -2,-6 -6,-11 -10,-17l-38 -45c-5,-6 -10,-11 -18,-14 -7,-4 -14,-5 -22,-5l-208 0c-7,0 -15,2 -22,5 -7,3 -13,8 -17,14l-38 46c-4,5 -7,10 -8,16 -2,6 -3,11 -3,17l0 116c0,6 1,12 3,17 2,6 5,11 9,16l38 45c4,6 10,10 17,14 7,4 15,6 22,6l208 0c7,0 15,-2 22,-5 7,-3 13,-8 17,-13l39 -46c4,-6 7,-11 10,-17 2,-6 3,-11 3,-17l0 -116zm105 -1l0 118c0,18 -3,36 -10,53 -7,18 -16,34 -28,49l-37 46c-14,17 -33,31 -54,42 -22,10 -44,15 -68,15l-208 0c-23,0 -45,-5 -66,-15 -21,-10 -39,-24 -54,-42l-39 -46c-12,-15 -21,-31 -27,-49 -6,-18 -10,-35 -10,-53l0 -118c0,-18 3,-35 9,-52 6,-17 15,-33 27,-48l39 -46c14,-18 32,-32 54,-42 22,-10 44,-15 66,-15l208 0c23,0 46,5 68,15 22,10 40,24 54,42l37 46c12,15 22,32 28,48 6,17 9,34 9,52zm121 794l-121 0 0 202c0,18 -5,32 -15,43 -10,11 -23,17 -39,17 -16,0 -29,-6 -39,-17 -10,-11 -15,-25 -15,-43l0 -202 -335 0c-15,0 -27,5 -36,15 -10,10 -15,22 -15,36l0 105c0,11 3,21 10,30 6,9 15,15 28,20 1,0 4,1 9,3 29,10 44,27 44,51 0,14 -5,27 -15,37 -10,10 -22,15 -35,15 -37,0 -70,-16 -101,-47 -30,-31 -46,-68 -46,-110l0 -104c0,-44 16,-81 47,-112 31,-31 69,-47 112,-47l334 0 0 -45c0,-18 5,-33 15,-43 10,-11 23,-16 39,-16 15,0 28,6 38,17 10,11 15,25 15,43l0 45 121 0c18,0 33,5 43,15 10,10 15,23 15,39 0,16 -5,29 -16,39 -11,10 -25,15 -42,15zm-197 -4668c4,10 6,20 6,30l0 68c0,23 -8,45 -24,61 -16,17 -37,25 -61,27l-384 13c-6,0 -13,2 -18,6 -4,4 -5,8 -5,14 0,4 2,6 5,9 5,5 11,6 18,6l1 0 381 -13c35,-1 64,-13 88,-37 24,-24 34,-52 34,-85l0 -67c0,-27 -12,-53 -27,-75 -1,-2 -2,-3 -3,-5l-1 -1 -88 -134 319 0c7,0 14,-1 19,-6 4,-3 5,-6 5,-11 0,-5 -1,-9 -4,-12 -5,-4 -13,-5 -19,-5l-704 0c-7,0 -14,1 -19,6 -4,3 -5,7 -5,12 0,5 1,9 5,12 5,5 12,5 19,5l343 0 105 156c6,9 12,18 16,28zm264 566l-751 0 0 430c0,7 1,14 6,19 3,4 7,5 12,5 5,0 9,-1 12,-5 5,-5 5,-12 5,-19l0 -396 323 0 0 187c0,6 1,13 5,18 3,4 7,4 12,4 5,0 9,-1 12,-4 4,-5 5,-11 5,-18l0 -187 323 0 0 396c0,7 1,13 6,19 3,4 6,5 11,5 5,0 9,-1 12,-5 5,-5 5,-12 5,-19l0 -430zm-246 1203l-91 0 85 -99c9,-11 16,-23 21,-36 5,-14 8,-28 8,-42l0 -82c0,-14 -2,-28 -7,-41 -5,-14 -13,-27 -23,-39l-28 -37c-10,-14 -25,-23 -40,-31 -16,-8 -33,-12 -51,-12l-232 0c-17,0 -34,6 -49,13 -15,7 -30,17 -40,30l-28 37c-9,12 -17,24 -22,38 -5,13 -7,27 -7,41l0 82c0,15 2,29 7,43 5,13 11,25 20,35l87 99 -180 0 -1 0c-12,-1 -25,-3 -36,-9 -11,-5 -21,-12 -29,-22l-38 -46c-7,-8 -12,-17 -16,-27 -3,-10 -4,-21 -4,-31l0 -207c0,-6 -1,-14 -5,-19 -3,-4 -7,-5 -12,-5 -5,0 -8,1 -12,5 -5,5 -6,12 -6,19l0 208c0,14 2,27 7,40 5,14 13,27 21,38l38 47c12,14 26,25 42,32 16,8 33,12 51,12l569 0c6,0 13,-1 18,-6 4,-4 5,-8 5,-13 0,-5 -1,-9 -4,-12 -5,-4 -12,-5 -19,-5zm-446 -117c-7,-8 -13,-17 -17,-26 -5,-11 -7,-22 -7,-34l0 -82c0,-21 8,-40 21,-56l1 -2 28 -35c8,-10 18,-18 30,-23 11,-4 22,-7 34,-7l227 0c12,0 24,2 35,7 12,5 22,12 30,22l27 34c7,8 14,18 18,28 4,10 6,21 6,32l0 82c0,11 -2,22 -7,33 -4,10 -10,19 -17,27l-73 89c-8,10 -18,16 -29,21 -11,5 -23,8 -36,8l-136 0c-12,0 -25,-3 -36,-8 -10,-5 -20,-11 -28,-20l-1 -1 -72 -90zm446 902l-91 0 85 -99c9,-11 16,-23 21,-36 5,-14 8,-28 8,-42l0 -82c0,-14 -2,-28 -7,-41 -5,-14 -13,-27 -23,-39l-28 -37c-10,-14 -25,-23 -40,-31 -16,-8 -33,-12 -51,-12l-232 0c-17,0 -34,6 -49,13 -15,7 -30,17 -40,30l-28 37c-9,12 -17,24 -22,38 -5,13 -7,27 -7,41l0 82c0,15 2,29 7,43 5,13 11,25 20,35l87 99 -180 0 -1 0c-12,-1 -25,-3 -36,-9 -11,-5 -21,-12 -29,-22l-38 -46c-7,-8 -12,-17 -16,-27 -3,-10 -4,-21 -4,-31l0 -207c0,-6 -1,-14 -5,-19 -3,-4 -7,-5 -12,-5 -5,0 -8,1 -12,5 -5,5 -6,12 -6,19l0 208c0,14 2,27 7,40 5,14 13,27 21,38l38 47c12,14 26,25 42,32 16,8 33,12 51,12l569 0c6,0 13,-1 18,-6 4,-4 5,-8 5,-13 0,-5 -1,-9 -4,-12 -5,-4 -12,-5 -19,-5zm-446 -117c-7,-8 -13,-17 -17,-26 -5,-11 -7,-22 -7,-34l0 -82c0,-21 8,-40 21,-56l1 -2 28 -35c8,-10 18,-18 30,-23 11,-4 22,-7 34,-7l227 0c12,0 24,2 35,7 12,5 22,12 30,22l27 34c7,8 14,18 18,28 4,10 6,21 6,32l0 82c0,11 -2,22 -7,33 -4,10 -10,19 -17,27l-73 89c-8,10 -18,16 -29,21 -11,5 -23,8 -36,8l-136 0c-12,0 -25,-3 -36,-8 -10,-5 -20,-11 -28,-20l-1 -1 -72 -90zm693 484l-751 0 0 275c0,50 18,91 53,126 35,35 76,53 126,53l37 0c25,0 48,-5 71,-16 24,-11 45,-27 63,-46l29 -32 26 34c15,19 34,33 56,43 24,11 50,17 77,17l37 0c49,0 90,-18 125,-53 35,-35 53,-76 53,-126l0 -275zm-35 35l0 240c0,39 -15,74 -42,101 -27,28 -62,43 -101,43l-38 0c-39,0 -74,-14 -101,-42 -28,-28 -42,-62 -42,-102l0 -240 323 0zm-358 0l0 240c0,39 -14,74 -42,101 -28,28 -62,43 -101,43l-38 0c-39,0 -73,-15 -101,-42 -28,-28 -42,-62 -42,-102l0 -240 323 0zm-330 840c-9,12 -16,24 -21,38 -5,13 -7,26 -7,40l0 118c0,14 2,28 7,41 5,14 12,27 21,39l38 46c11,14 25,24 41,32 16,8 33,12 51,12l208 0c18,0 36,-4 52,-12 16,-8 31,-18 42,-32l37 -46c9,-12 17,-24 22,-39 5,-13 7,-27 7,-41l0 -118c0,-14 -2,-27 -7,-40 -5,-14 -13,-27 -22,-38l-37 -46c-11,-14 -25,-24 -41,-32 -17,-8 -34,-12 -52,-12l-208 0c-18,0 -35,4 -51,12 -16,8 -30,18 -42,33l-38 45zm406 297c-8,10 -18,18 -29,23 -12,6 -25,9 -38,9l-208 0c-13,0 -26,-3 -38,-9 -11,-6 -21,-13 -29,-23l-38 -46c-6,-8 -11,-17 -14,-26 -3,-9 -5,-19 -5,-29l0 -116c0,-10 1,-19 5,-29 3,-10 8,-18 14,-26l38 -46c8,-10 18,-18 29,-24 12,-6 25,-9 38,-9l208 0c13,0 26,3 37,9 12,6 23,14 30,24l39 46 1 1c5,7 10,15 13,24 4,10 6,20 6,30l0 116c0,11 -2,21 -6,31 -4,8 -8,16 -14,24l-1 1 -39 47zm249 538c6,0 13,-1 17,-5 4,-4 5,-8 5,-13 0,-5 -1,-9 -4,-12 -4,-4 -13,-5 -18,-5l-157 0 0 -81c0,-7 -1,-13 -6,-19 -3,-4 -6,-5 -11,-5 -5,0 -9,1 -12,4 -5,5 -5,13 -5,19l0 81 -370 0c-34,0 -62,12 -87,36 -24,24 -36,52 -36,87l0 104c0,34 12,61 36,85 21,21 45,36 75,36 4,0 7,-2 10,-5 3,-3 5,-7 5,-11 0,-11 -10,-14 -19,-17l-1 0 -1 0c-2,-1 -5,-2 -7,-3l-1 0c-18,-6 -33,-17 -44,-32 -11,-15 -17,-33 -17,-51l0 -105c0,-24 8,-45 25,-62 17,-17 38,-25 62,-25l371 0 0 238c0,7 1,14 6,19 3,4 7,5 12,5 5,0 9,-1 12,-5 5,-5 5,-12 5,-19l0 -238 157 0z"/>
  <path fill="none" stroke="red" d="M14891 27842l373 -373 0 0c95,-94 226,-153 369,-153l260 0c289,0 525,236 525,525l0 0c0,289 -236,525 -525,525l-260 0c-144,0 -274,-58 -369,-153l0 0 -373 -373zm-411 -900l2250 0c165,0 300,135 300,300l0 1200c0,165 -135,300 -300,300l-2250 0c-165,0 -300,-135 -300,-300l0 -1200c0,-165 135,-300 300,-300zm1975 625l250 0 0 550 -250 0 0 -550z"/>
 </g>
</svg>
